<svg width="10" height="7" viewBox="0 0 10 7" fill="none" xmlns="http://www.w3.org/2000/svg">
<path d="M8.03216 0.222711C8.19651 0.0782836 8.41521 -0.00156167 8.64211 2.31488e-05C8.86902 0.00160797 9.08639 0.0844991 9.24835 0.231205C9.41031 0.377912 9.50419 0.576958 9.51019 0.786344C9.51618 0.995731 9.43383 1.19908 9.28049 1.35348L4.62549 6.72733C4.54545 6.80691 4.44884 6.87078 4.34145 6.91511C4.23405 6.95944 4.11808 6.98332 4.00045 6.98533C3.88283 6.98734 3.76597 6.96744 3.65688 6.92681C3.54778 6.88618 3.44867 6.82566 3.36549 6.74886L0.278493 3.89933C0.192525 3.82538 0.123573 3.73621 0.0757487 3.63714C0.0279248 3.53806 0.00220909 3.43111 0.000136173 3.32266C-0.00193674 3.21421 0.0196756 3.10649 0.0636835 3.00591C0.107691 2.90534 0.173193 2.81398 0.256282 2.73729C0.33937 2.66059 0.438343 2.60012 0.547296 2.5595C0.656249 2.51888 0.77295 2.49893 0.890436 2.50084C1.00792 2.50276 1.12379 2.52649 1.23112 2.57064C1.33845 2.61478 1.43505 2.67843 1.51516 2.75779L3.95816 5.01179L8.00999 0.246403C8.01729 0.238112 8.02508 0.230202 8.03333 0.222711H8.03216Z" fill="#F4F4FD"/>
</svg>
